<?xml version="1.0" standalone="no"?>
<!DOCTYPE svg PUBLIC "-//W3C//DTD SVG 20010904//EN"
 "http://www.w3.org/TR/2001/REC-SVG-20010904/DTD/svg10.dtd">
<svg version="1.0" xmlns="http://www.w3.org/2000/svg"
 width="840.000000pt" height="840.000000pt" viewBox="0 0 840.000000 840.000000"
 preserveAspectRatio="xMidYMid meet">
<metadata>
Created by potrace 1.11, written by Peter Selinger 2001-2013
</metadata>
<g transform="translate(0.000000,840.000000) scale(0.100000,-0.100000)"
fill="#000000" stroke="none">
<path d="M3271 8344 c25 -59 64 -188 78 -264 6 -30 12 -65 15 -76 6 -29 18
-188 18 -244 0 -66 -17 -285 -22 -285 -1 0 -3 -9 -4 -20 -11 -81 -18 -120 -22
-127 -3 -5 -8 -21 -10 -36 -7 -39 -63 -209 -86 -262 -56 -126 -111 -235 -161
-319 -32 -52 -57 -97 -57 -102 0 -4 -3 -9 -8 -11 -4 -1 -28 -32 -53 -68 -57
-80 -143 -188 -274 -345 -55 -66 -107 -128 -115 -139 -8 -10 -20 -24 -27 -30
-10 -11 -103 -123 -125 -151 -10 -12 -41 -48 -83 -96 -16 -19 -48 -57 -70 -84
-21 -28 -42 -52 -45 -55 -4 -3 -45 -54 -93 -115 -48 -60 -96 -119 -106 -130
-10 -11 -66 -85 -125 -165 -59 -80 -113 -152 -119 -160 -29 -36 -198 -302
-236 -370 -75 -135 -211 -415 -211 -436 0 -3 -6 -20 -14 -37 -15 -34 -66 -180
-71 -206 -2 -9 -10 -35 -19 -59 -8 -23 -15 -45 -15 -47 0 -3 -9 -45 -20 -93
-11 -48 -23 -103 -26 -122 -3 -19 -8 -48 -11 -65 -3 -16 -7 -43 -10 -58 -4
-27 -7 -54 -21 -192 -9 -82 -8 -496 0 -570 16 -134 18 -152 28 -210 19 -114
63 -308 90 -395 19 -60 70 -204 85 -237 8 -17 14 -34 14 -38 0 -15 114 -249
164 -335 14 -25 30 -54 36 -65 5 -11 31 -52 58 -92 220 -334 459 -589 767
-816 115 -85 108 -80 131 -94 264 -167 491 -278 741 -363 51 -17 101 -33 110
-35 10 -2 45 -12 78 -21 99 -27 274 -62 350 -71 28 -3 52 -6 55 -8 14 -9 214
-19 370 -20 164 0 348 9 397 19 11 2 43 7 70 11 26 4 59 9 73 11 14 3 39 7 55
10 17 3 77 17 135 31 58 14 112 26 120 28 8 2 16 4 18 5 1 2 7 4 12 5 6 1 11
3 13 5 1 1 9 3 17 5 24 4 173 55 195 65 11 5 85 35 164 65 157 61 306 132 396
189 83 53 141 91 150 98 6 5 44 34 86 66 132 99 288 244 429 398 66 71 200
241 200 252 0 6 4 12 9 14 25 10 190 284 250 418 91 200 179 439 196 524 2 12
4 21 5 21 2 0 7 21 15 60 3 17 11 47 16 68 10 39 36 173 45 237 5 36 9 73 21
200 10 98 9 484 0 580 -5 41 -10 98 -13 125 -2 28 -7 64 -10 80 -2 17 -7 50
-10 75 -2 25 -11 74 -18 110 -8 36 -14 72 -15 80 0 8 -5 35 -11 60 -5 25 -13
56 -16 69 -3 13 -12 51 -20 85 -8 34 -17 70 -19 81 -15 84 -164 546 -205 637
l-19 43 6 -60 c7 -73 11 -237 5 -249 -3 -4 -6 -31 -8 -60 -5 -97 -17 -181 -46
-316 -24 -114 -26 -125 -28 -125 -1 0 -4 -13 -6 -30 -3 -16 -7 -37 -10 -45 -3
-8 -5 -17 -6 -20 0 -3 -6 -20 -13 -37 -8 -18 -11 -33 -8 -33 3 0 0 -7 -7 -15
-7 -8 -10 -15 -7 -15 5 0 -34 -124 -52 -165 -5 -11 -26 -63 -46 -115 -39 -97
-144 -318 -185 -387 -35 -59 -104 -167 -110 -173 -3 -3 -19 -25 -35 -50 -57
-84 -196 -217 -257 -245 -92 -42 -177 -35 -228 20 -23 24 -25 35 -25 113 0 91
7 124 56 257 24 65 82 169 109 195 3 3 10 14 17 25 53 88 98 161 103 165 14
11 113 196 170 317 78 163 92 194 105 233 1 3 4 12 8 20 21 52 86 260 90 287
3 17 8 36 11 41 3 6 8 25 10 43 3 19 10 65 16 103 29 181 31 501 4 631 -3 11
-7 38 -10 60 -25 191 -149 564 -241 733 -13 23 -21 42 -17 42 4 0 1 8 -8 18
-8 9 -20 28 -26 42 -57 119 -278 450 -344 513 -10 10 -18 21 -18 25 0 4 -19
28 -43 53 -23 25 -58 65 -77 90 -91 116 -299 325 -519 519 -40 36 -85 74 -99
85 -14 11 -35 29 -47 40 -13 11 -40 34 -61 50 -22 17 -49 40 -62 53 -13 12
-25 22 -28 22 -3 0 -12 7 -21 15 -32 33 -262 205 -273 205 -6 0 -8 5 -5 10 3
6 2 10 -4 10 -5 0 -39 21 -74 48 -68 50 -163 111 -237 151 -25 13 -46 28 -48
32 -2 5 -12 9 -23 9 -10 0 -19 4 -19 8 0 5 -24 19 -52 33 -29 13 -55 26 -58
29 -5 6 -179 93 -190 95 -3 1 -36 16 -73 33 -38 18 -71 32 -73 32 -2 0 -27 11
-56 24 -50 22 -126 51 -193 74 -16 6 -39 13 -50 18 -11 4 -28 9 -38 11 -10 1
-31 10 -48 18 -16 9 -29 13 -29 11 0 -3 -12 -1 -27 5 -29 11 -35 13 -91 25
l-32 7 21 -49z m1702 -2875 c40 -95 88 -236 101 -299 31 -146 36 -178 42 -279
2 -47 6 -87 9 -89 2 -2 0 -15 -6 -29 -6 -17 -6 -22 3 -17 6 4 8 3 5 -3 -3 -5
-8 -47 -11 -94 -4 -73 -13 -141 -31 -249 -3 -14 -18 -73 -35 -130 -17 -58 -32
-109 -34 -115 -18 -63 -105 -249 -163 -350 -86 -148 -87 -149 -98 -157 -6 -5
-6 -8 -1 -8 6 0 1 -9 -10 -20 -10 -10 -23 -25 -29 -32 -15 -20 -119 -142 -126
-148 -3 -3 -43 -48 -90 -100 -46 -52 -91 -102 -99 -111 -15 -15 -152 -166
-199 -218 -13 -14 -40 -44 -60 -66 -78 -87 -221 -276 -221 -294 0 -5 -4 -11
-8 -13 -10 -3 -87 -131 -117 -193 -11 -22 -23 -41 -27 -43 -5 -2 -8 -9 -8 -15
0 -7 -6 -24 -14 -38 -28 -55 -104 -263 -108 -296 0 -5 -4 -18 -9 -31 -5 -13
-11 -35 -14 -50 -3 -15 -7 -38 -10 -52 -6 -29 -15 -90 -22 -145 -3 -22 -5
-109 -5 -194 0 -144 -1 -152 -16 -130 -9 13 -21 29 -27 35 -5 7 -17 21 -26 31
-22 27 -124 184 -124 192 -1 3 -9 22 -20 41 -11 19 -20 37 -20 40 -1 3 -7 17
-13 33 -7 15 -17 39 -23 55 -13 33 -58 179 -63 207 -2 11 -7 31 -10 45 -39
175 -38 497 3 704 6 28 13 65 16 83 3 18 9 42 14 55 5 13 9 28 10 33 20 119
130 407 228 594 31 58 61 116 67 128 6 13 14 23 19 23 4 0 7 5 7 11 0 14 89
151 104 161 6 4 7 8 3 8 -5 0 -1 7 7 16 9 8 13 20 10 26 -4 7 -2 8 4 4 7 -4
12 -1 12 9 0 9 5 13 10 10 6 -3 10 -1 10 5 0 11 98 135 145 184 11 12 40 46
65 75 25 30 50 59 55 65 13 14 162 194 195 236 14 17 32 40 41 50 8 10 24 31
35 45 10 15 34 43 51 64 18 20 33 39 33 42 0 3 8 15 18 27 9 11 24 30 32 42 8
13 24 35 36 49 11 14 40 55 65 91 24 36 46 67 49 70 5 5 77 112 95 142 5 9 26
42 45 73 56 91 64 105 118 203 28 51 54 101 57 112 10 32 28 6 78 -111z"/>
</g>
</svg>
