<?xml version="1.0" encoding="UTF-8"?>
<svg width="1920" height="1080" version="1.1" viewBox="0 0 1920 1080.0129" xmlns="http://www.w3.org/2000/svg" xmlns:cc="http://creativecommons.org/ns#" xmlns:dc="http://purl.org/dc/elements/1.1/" xmlns:rdf="http://www.w3.org/1999/02/22-rdf-syntax-ns#" xmlns:xlink="http://www.w3.org/1999/xlink">
<metadata>
<rdf:RDF>
<cc:Work rdf:about="">
<dc:format>image/svg+xml</dc:format>
<dc:type rdf:resource="http://purl.org/dc/dcmitype/StillImage"/>
<dc:title/>
</cc:Work>
</rdf:RDF>
</metadata>
<defs>
<clipPath id="g">
<rect x="-3.6399" y="847.07" width="1929.1" height="389.46" fill="#e2e3db" stroke="#000"/>
</clipPath>
<clipPath id="h">
<rect x="-3.6399" y="847.07" width="1929.1" height="389.46" fill="#e2e3db" stroke="#000"/>
</clipPath>
<radialGradient id="a" cx="-.064725" cy=".041065" r="1" gradientTransform="matrix(-213.45 -1118.9 5862.7 -1118.4 2934.1 241.64)" gradientUnits="userSpaceOnUse">
<stop stop-color="#00b9f2" offset="0"/>
<stop stop-color="#00b9f2" offset=".19012"/>
<stop stop-color="#16479e" offset="1"/>
</radialGradient>
<clipPath id="d">
<path d="m238.38 304.73c-7.003-11.95-16.412-21.895-23.701-29.897-17.862-19.614-13.603-43.302 7.039-51.338 19.414-7.557 40.952 14.102 46.667 28.527 8.442 18.664 5.671 38.834-1.874 58.172 2.518-19.136-1.646-53.343-21.897-63.529-8.73-4.39-20.366 2.668-1.684 24.79 7.889 9.344 12.413 17.517 14.997 25.012 5.826 16.882-0.371 34.383-12.508 48.135 2.588-3.034 4.226-20.64-7.039-39.872"/>
</clipPath>
<radialGradient id="i" cx="0" cy="0" r="1" gradientTransform="matrix(69.2,0,0,-69.2,221.32,294.43)" gradientUnits="userSpaceOnUse">
<stop stop-color="#ffd400" offset="0"/>
<stop stop-color="#f37021" offset=".68485"/>
<stop stop-color="#f37021" offset="1"/>
</radialGradient>
<clipPath id="b">
<path d="m222.77 364.92c13.696-12.572 12.756-26.87 5.819-40.877 5.491-10.344 6.223-23.971-3.811-37.946 4.756 5.556 9.577 11.76 13.603 18.629 10.888 18.593 9.721 35.661 7.295 39.519-0.068 0.094-0.131 0.188-0.196 0.265-6.537 8.538-22.71 20.413-22.71 20.413z"/>
</clipPath>
<linearGradient id="f" x2="1" gradientTransform="matrix(0,-76.913,-76.913,0,235.04,354.13)" gradientUnits="userSpaceOnUse">
<stop stop-color="#f15a22" offset="0"/>
<stop stop-color="#f15a22" offset=".58787"/>
<stop stop-color="#fcaf16" offset="1"/>
</linearGradient>
</defs>
<rect y="-1.7166e-5" width="1920" height="1080" fill="url(#a)" stroke-width="11.002" style="font-variant-east_asian:normal"/>
<g transform="matrix(1.2623 0 0 .85564 -86.128 43.502)" clip-path="url(#g)" fill="#fff" fill-opacity=".16418">
<path transform="matrix(1.3398 0 0 .47597 -113.44 471.07)" d="m0 1084.2c-136.79 161.21-224.32 363.45-249.38 573.39-25.063 209.93 12.273 426.76 105.05 616.74 92.776 189.98 240.54 352.53 420.22 463.96s390.63 171.5 602.05 172.65c211.42 1.1408 422.7-56.518 604.84-163.88s334.72-264.02 438.28-448.34 157.95-395.81 157.37-607.23-56.01-422.32-158.42-607.28c-39.758-71.808-87.381-140.77-151.19-192.41-63.804-51.635-145.6-84.704-227.36-77.493-81.256 7.1662-153.67 52.091-222.06 96.559-68.385 44.468-139.34 90.915-220.18 101.81-45.232 6.0959-91.508 0.5699-135.49-11.618-43.984-12.188-85.889-30.912-126.65-51.454-81.514-41.085-160.52-90.232-249.25-111.64-108.76-26.237-225.55-7.972-327.02 39.167-101.46 47.139-188.43 121.77-260.81 207.08z" fill="#fff" fill-opacity=".16418"/>
</g>
<g transform="matrix(1.2623 0 0 .85564 -17.244 229.46)" clip-path="url(#h)" fill="#fff" fill-opacity=".9801">
<path transform="matrix(1.3398 0 0 .47597 -113.44 471.07)" d="m0 1084.2c-136.79 161.21-224.32 363.45-249.38 573.39-25.063 209.93 12.273 426.76 105.05 616.74 92.776 189.98 240.54 352.53 420.22 463.96s390.63 171.5 602.05 172.65c211.42 1.1408 422.7-56.518 604.84-163.88s334.72-264.02 438.28-448.34 157.95-395.81 157.37-607.23-56.01-422.32-158.42-607.28c-39.758-71.808-87.381-140.77-151.19-192.41-63.804-51.635-145.6-84.704-227.36-77.493-81.256 7.1662-153.67 52.091-222.06 96.559-68.385 44.468-139.34 90.915-220.18 101.81-45.232 6.0959-91.508 0.5699-135.49-11.618-43.984-12.188-85.889-30.912-126.65-51.454-81.514-41.085-160.52-90.232-249.25-111.64-108.76-26.237-225.55-7.972-327.02 39.167-101.46 47.139-188.43 121.77-260.81 207.08z" fill="#fff" fill-opacity=".9801"/>
</g>
<g transform="matrix(4.6457 0 0 -4.6457 -1088.7 1997.3)">
<g clip-path="url(#d)">
<path d="m238.38 304.73c-7.003-11.95-16.412-21.895-23.701-29.897-17.862-19.614-13.603-43.302 7.039-51.338 19.414-7.557 40.952 14.102 46.667 28.527 8.442 18.664 5.671 38.834-1.874 58.172 2.518-19.136-1.646-53.343-21.897-63.529-8.73-4.39-20.366 2.668-1.684 24.79 7.889 9.344 12.413 17.517 14.997 25.012 5.826 16.882-0.371 34.383-12.508 48.135 2.588-3.034 4.226-20.64-7.039-39.872" fill="url(#i)"/>
</g>
</g>
<g transform="matrix(4.6457 0 0 -4.6457 -1086.7 1999.3)">
<g clip-path="url(#b)">
<path d="m222.77 364.92c13.696-12.572 12.756-26.87 5.819-40.877 5.491-10.344 6.223-23.971-3.811-37.946 4.756 5.556 9.577 11.76 13.603 18.629 10.888 18.593 9.721 35.661 7.295 39.519-0.068 0.094-0.131 0.188-0.196 0.265-6.537 8.538-22.71 20.413-22.71 20.413z" fill="url(#f)"/>
</g>
</g>
<rect x="-3.3966e-9" y="-1.7166e-5" width="1920" height="1080" fill-opacity=".31765" stroke="#000" stroke-width=".66666"/>
</svg>
