<?xml version="1.0" encoding="UTF-8"?>
<svg width="77.644" height="105.43" version="1.1" viewBox="0 0 155.28705 210.85103" xml:space="preserve" xmlns="http://www.w3.org/2000/svg" xmlns:cc="http://creativecommons.org/ns#" xmlns:dc="http://purl.org/dc/elements/1.1/" xmlns:rdf="http://www.w3.org/1999/02/22-rdf-syntax-ns#"><metadata><rdf:RDF><cc:Work rdf:about=""><dc:format>image/svg+xml</dc:format><dc:type rdf:resource="http://purl.org/dc/dcmitype/StillImage"/><dc:title/></cc:Work></rdf:RDF></metadata><defs><clipPath id="i"><path d="m209.4 297.17c-0.039-0.045-0.078-0.09-0.117-0.135 0.041 0.047 0.082 0.094 0.123 0.142-3e-3 -2e-3 -3e-3 -5e-3 -6e-3 -7e-3m-22.599-26.177c-10.891-15.792-9.287-27.963-5.351-35.933 3.449-6.985 8.978-10.733 9.189-10.874 10.979-5.216 23.679-7.046 36.508-4.428 23.196 4.732 39.89 22.604 44.789 44.335-2.116-3.726-17.895-38.355-50.714-28.673-34.492 10.176-27.216 43.919-11.939 61.615-8.751-10.027-17.655-19.039-22.482-26.042"/></clipPath><linearGradient id="d" x2="1" gradientTransform="matrix(73.765 -31.485 -31.485 -73.765 188.74 265.47)" gradientUnits="userSpaceOnUse"><stop stop-color="#203468" offset="0"/><stop stop-color="#203468" offset=".042424"/><stop stop-color="#2575ae" offset=".6"/><stop stop-color="#2575ae" offset="1"/></linearGradient><clipPath id="h"><path d="m266.68 308.84c-0.044 0.456-0.099 0.909-0.165 1.355 0.059-0.444 0.114-0.896 0.165-1.355m-16.624-39.972c-6.983-0.948-1.601 9.685-1.601 9.685v7e-3c-1.633-2.295-3.456-4.656-5.521-7.104-18.682-22.122-7.046-29.18 1.684-24.79 19.782 9.95 24.213 42.819 22.062 62.174 1.577-16.321-10.185-39.096-16.624-39.972"/></clipPath><linearGradient id="c" x2="1" gradientTransform="matrix(60.834 25.239 25.239 -60.834 225.75 266.04)" gradientUnits="userSpaceOnUse"><stop stop-color="#d14f1d" offset="0"/><stop stop-color="#d14f1d" offset=".28254"/><stop stop-color="#ffde00" offset=".81132"/><stop stop-color="#ffde00" offset="1"/></linearGradient><clipPath id="g"><path d="m189.85 338.82c-16.602-20.531-32.743-34.922-32.743-62.123 0.023-23.003 13.463-42.995 33.559-52.532 0 0-5.691 3.768-9.208 10.888-3.936 7.97-5.54 20.141 5.351 35.933 15.037 21.81 69.583 63.073 35.965 93.931v3e-3c-7.662 5.151-16.161 9.251-25.475 11.785 0 0 9.189-17.309-7.449-37.885"/></clipPath><radialGradient id="a" cx="0" cy="0" r="1" gradientTransform="matrix(114.41 0 0 -114.41 211.69 340.53)" gradientUnits="userSpaceOnUse"><stop stop-color="#00b9f2" offset="0"/><stop stop-color="#00b9f2" offset=".11515"/><stop stop-color="#16479e" offset="1"/></radialGradient><clipPath id="f"><path d="m238.38 304.73c-7.003-11.95-16.412-21.895-23.701-29.897-17.862-19.614-13.603-43.302 7.039-51.338 19.414-7.557 40.952 14.102 46.667 28.527 8.442 18.664 5.671 38.834-1.874 58.172 2.518-19.136-1.646-53.343-21.897-63.529-8.73-4.39-20.366 2.668-1.684 24.79 7.889 9.344 12.413 17.517 14.997 25.012 5.826 16.882-0.371 34.383-12.508 48.135 2.588-3.034 4.226-20.64-7.039-39.872"/></clipPath><radialGradient id="b" cx="0" cy="0" r="1" gradientTransform="matrix(69.2 0 0 -69.2 221.32 294.43)" gradientUnits="userSpaceOnUse"><stop stop-color="#ffd400" offset="0"/><stop stop-color="#f37021" offset=".68485"/><stop stop-color="#f37021" offset="1"/></radialGradient><clipPath id="j"><path d="m222.77 364.92c13.696-12.572 12.756-26.87 5.819-40.877 5.491-10.344 6.223-23.971-3.811-37.946 4.756 5.556 9.577 11.76 13.603 18.629 10.888 18.593 9.721 35.661 7.295 39.519-0.068 0.094-0.131 0.188-0.196 0.265-6.537 8.538-22.71 20.413-22.71 20.413z"/></clipPath><linearGradient id="e" x2="1" gradientTransform="matrix(0 -76.913 -76.913 0 235.04 354.13)" gradientUnits="userSpaceOnUse"><stop stop-color="#f15a22" offset="0"/><stop stop-color="#f15a22" offset=".58787"/><stop stop-color="#fcaf16" offset="1"/></linearGradient></defs><g transform="matrix(1.3333 0 0 -1.3333 -209.47 502.28)"><g clip-path="url(#i)"><path d="m209.4 297.17c-0.039-0.045-0.078-0.09-0.117-0.135 0.041 0.047 0.082 0.094 0.123 0.142-3e-3 -2e-3 -3e-3 -5e-3 -6e-3 -7e-3m-22.599-26.177c-10.891-15.792-9.287-27.963-5.351-35.933 3.449-6.985 8.978-10.733 9.189-10.874 10.979-5.216 23.679-7.046 36.508-4.428 23.196 4.732 39.89 22.604 44.789 44.335-2.116-3.726-17.895-38.355-50.714-28.673-34.492 10.176-27.216 43.919-11.939 61.615-8.751-10.027-17.655-19.039-22.482-26.042" fill="url(#d)"/></g></g><g transform="matrix(1.3333 0 0 -1.3333 -209.47 502.28)"><g clip-path="url(#h)"><path d="m266.68 308.84c-0.044 0.456-0.099 0.909-0.165 1.355 0.059-0.444 0.114-0.896 0.165-1.355m-16.624-39.972c-6.983-0.948-1.601 9.685-1.601 9.685v7e-3c-1.633-2.295-3.456-4.656-5.521-7.104-18.682-22.122-7.046-29.18 1.684-24.79 19.782 9.95 24.213 42.819 22.062 62.174 1.577-16.321-10.185-39.096-16.624-39.972" fill="url(#c)"/></g></g><g transform="matrix(1.3333 0 0 -1.3333 -209.47 502.28)"><g clip-path="url(#g)"><path d="m189.85 338.82c-16.602-20.531-32.743-34.922-32.743-62.123 0.023-23.003 13.463-42.995 33.559-52.532 0 0-5.691 3.768-9.208 10.888-3.936 7.97-5.54 20.141 5.351 35.933 15.037 21.81 69.583 63.073 35.965 93.931v3e-3c-7.662 5.151-16.161 9.251-25.475 11.785 0 0 9.189-17.309-7.449-37.885" fill="url(#a)"/></g></g><g transform="matrix(1.3333 0 0 -1.3333 -209.47 502.28)"><g clip-path="url(#f)"><path d="m238.38 304.73c-7.003-11.95-16.412-21.895-23.701-29.897-17.862-19.614-13.603-43.302 7.039-51.338 19.414-7.557 40.952 14.102 46.667 28.527 8.442 18.664 5.671 38.834-1.874 58.172 2.518-19.136-1.646-53.343-21.897-63.529-8.73-4.39-20.366 2.668-1.684 24.79 7.889 9.344 12.413 17.517 14.997 25.012 5.826 16.882-0.371 34.383-12.508 48.135 2.588-3.034 4.226-20.64-7.039-39.872" fill="url(#b)"/></g></g><g transform="matrix(1.3333 0 0 -1.3333 -209.47 502.28)"><g clip-path="url(#j)"><path d="m222.77 364.92c13.696-12.572 12.756-26.87 5.819-40.877 5.491-10.344 6.223-23.971-3.811-37.946 4.756 5.556 9.577 11.76 13.603 18.629 10.888 18.593 9.721 35.661 7.295 39.519-0.068 0.094-0.131 0.188-0.196 0.265-6.537 8.538-22.71 20.413-22.71 20.413z" fill="url(#e)"/></g></g></svg>
