<?xml version="1.0" encoding="UTF-8"?>
<svg width="1059.5" height="319.3" version="1.1" viewBox="0 0 706.3004 212.84139" xml:space="preserve" xmlns="http://www.w3.org/2000/svg" xmlns:cc="http://creativecommons.org/ns#" xmlns:dc="http://purl.org/dc/elements/1.1/" xmlns:rdf="http://www.w3.org/1999/02/22-rdf-syntax-ns#"><metadata><rdf:RDF><cc:Work rdf:about=""><dc:format>image/svg+xml</dc:format><dc:type rdf:resource="http://purl.org/dc/dcmitype/StillImage"/><dc:title/></cc:Work></rdf:RDF></metadata><defs><clipPath id="i"><path d="m209.4 297.17c-0.039-0.045-0.078-0.09-0.117-0.135 0.041 0.047 0.082 0.094 0.123 0.142-3e-3 -2e-3 -3e-3 -5e-3 -6e-3 -7e-3m-22.599-26.177c-10.891-15.792-9.287-27.963-5.351-35.933 3.449-6.985 8.978-10.733 9.189-10.874 10.979-5.216 23.679-7.046 36.508-4.428 23.196 4.732 39.89 22.604 44.789 44.335-2.116-3.726-17.895-38.355-50.714-28.673-34.492 10.176-27.216 43.919-11.939 61.615-8.751-10.027-17.655-19.039-22.482-26.042"/></clipPath><linearGradient id="d" x2="1" gradientTransform="matrix(73.765 -31.485 -31.485 -73.765 188.74 265.47)" gradientUnits="userSpaceOnUse"><stop stop-color="#203468" offset="0"/><stop stop-color="#203468" offset=".042424"/><stop stop-color="#2575ae" offset=".6"/><stop stop-color="#2575ae" offset="1"/></linearGradient><clipPath id="h"><path d="m266.68 308.84c-0.044 0.456-0.099 0.909-0.165 1.355 0.059-0.444 0.114-0.896 0.165-1.355m-16.624-39.972c-6.983-0.948-1.601 9.685-1.601 9.685v7e-3c-1.633-2.295-3.456-4.656-5.521-7.104-18.682-22.122-7.046-29.18 1.684-24.79 19.782 9.95 24.213 42.819 22.062 62.174 1.577-16.321-10.185-39.096-16.624-39.972"/></clipPath><linearGradient id="c" x2="1" gradientTransform="matrix(60.834 25.239 25.239 -60.834 225.75 266.04)" gradientUnits="userSpaceOnUse"><stop stop-color="#d14f1d" offset="0"/><stop stop-color="#d14f1d" offset=".28254"/><stop stop-color="#ffde00" offset=".81132"/><stop stop-color="#ffde00" offset="1"/></linearGradient><clipPath id="g"><path d="m189.85 338.82c-16.602-20.531-32.743-34.922-32.743-62.123 0.023-23.003 13.463-42.995 33.559-52.532 0 0-5.691 3.768-9.208 10.888-3.936 7.97-5.54 20.141 5.351 35.933 15.037 21.81 69.583 63.073 35.965 93.931v3e-3c-7.662 5.151-16.161 9.251-25.475 11.785 0 0 9.189-17.309-7.449-37.885"/></clipPath><radialGradient id="a" cx="0" cy="0" r="1" gradientTransform="matrix(114.41 0 0 -114.41 211.69 340.53)" gradientUnits="userSpaceOnUse"><stop stop-color="#00b9f2" offset="0"/><stop stop-color="#00b9f2" offset=".11515"/><stop stop-color="#16479e" offset="1"/></radialGradient><clipPath id="f"><path d="m238.38 304.73c-7.003-11.95-16.412-21.895-23.701-29.897-17.862-19.614-13.603-43.302 7.039-51.338 19.414-7.557 40.952 14.102 46.667 28.527 8.442 18.664 5.671 38.834-1.874 58.172 2.518-19.136-1.646-53.343-21.897-63.529-8.73-4.39-20.366 2.668-1.684 24.79 7.889 9.344 12.413 17.517 14.997 25.012 5.826 16.882-0.371 34.383-12.508 48.135 2.588-3.034 4.226-20.64-7.039-39.872"/></clipPath><radialGradient id="b" cx="0" cy="0" r="1" gradientTransform="matrix(69.2 0 0 -69.2 221.32 294.43)" gradientUnits="userSpaceOnUse"><stop stop-color="#ffd400" offset="0"/><stop stop-color="#f37021" offset=".68485"/><stop stop-color="#f37021" offset="1"/></radialGradient><clipPath id="k"><path d="m222.77 364.92c13.696-12.572 12.756-26.87 5.819-40.877 5.491-10.344 6.223-23.971-3.811-37.946 4.756 5.556 9.577 11.76 13.603 18.629 10.888 18.593 9.721 35.661 7.295 39.519-0.068 0.094-0.131 0.188-0.196 0.265-6.537 8.538-22.71 20.413-22.71 20.413z"/></clipPath><linearGradient id="e" x2="1" gradientTransform="matrix(0 -76.913 -76.913 0 235.04 354.13)" gradientUnits="userSpaceOnUse"><stop stop-color="#f15a22" offset="0"/><stop stop-color="#f15a22" offset=".58787"/><stop stop-color="#fcaf16" offset="1"/></linearGradient><clipPath id="j"><path d="M 0,595.28 H 841.89 V 0 H 0 Z"/></clipPath></defs><g transform="matrix(1.3333 0 0 -1.3333 -208.09 503.81)"><g clip-path="url(#i)"><path d="m209.4 297.17c-0.039-0.045-0.078-0.09-0.117-0.135 0.041 0.047 0.082 0.094 0.123 0.142-3e-3 -2e-3 -3e-3 -5e-3 -6e-3 -7e-3m-22.599-26.177c-10.891-15.792-9.287-27.963-5.351-35.933 3.449-6.985 8.978-10.733 9.189-10.874 10.979-5.216 23.679-7.046 36.508-4.428 23.196 4.732 39.89 22.604 44.789 44.335-2.116-3.726-17.895-38.355-50.714-28.673-34.492 10.176-27.216 43.919-11.939 61.615-8.751-10.027-17.655-19.039-22.482-26.042" fill="url(#d)"/></g><g clip-path="url(#h)"><path d="m266.68 308.84c-0.044 0.456-0.099 0.909-0.165 1.355 0.059-0.444 0.114-0.896 0.165-1.355m-16.624-39.972c-6.983-0.948-1.601 9.685-1.601 9.685v7e-3c-1.633-2.295-3.456-4.656-5.521-7.104-18.682-22.122-7.046-29.18 1.684-24.79 19.782 9.95 24.213 42.819 22.062 62.174 1.577-16.321-10.185-39.096-16.624-39.972" fill="url(#c)"/></g><g clip-path="url(#g)"><path d="m189.85 338.82c-16.602-20.531-32.743-34.922-32.743-62.123 0.023-23.003 13.463-42.995 33.559-52.532 0 0-5.691 3.768-9.208 10.888-3.936 7.97-5.54 20.141 5.351 35.933 15.037 21.81 69.583 63.073 35.965 93.931v3e-3c-7.662 5.151-16.161 9.251-25.475 11.785 0 0 9.189-17.309-7.449-37.885" fill="url(#a)"/></g><g clip-path="url(#f)"><path d="m238.38 304.73c-7.003-11.95-16.412-21.895-23.701-29.897-17.862-19.614-13.603-43.302 7.039-51.338 19.414-7.557 40.952 14.102 46.667 28.527 8.442 18.664 5.671 38.834-1.874 58.172 2.518-19.136-1.646-53.343-21.897-63.529-8.73-4.39-20.366 2.668-1.684 24.79 7.889 9.344 12.413 17.517 14.997 25.012 5.826 16.882-0.371 34.383-12.508 48.135 2.588-3.034 4.226-20.64-7.039-39.872" fill="url(#b)"/></g><g clip-path="url(#k)"><path d="m222.77 364.92c13.696-12.572 12.756-26.87 5.819-40.877 5.491-10.344 6.223-23.971-3.811-37.946 4.756 5.556 9.577 11.76 13.603 18.629 10.888 18.593 9.721 35.661 7.295 39.519-0.068 0.094-0.131 0.188-0.196 0.265-6.537 8.538-22.71 20.413-22.71 20.413z" fill="url(#e)"/></g><g clip-path="url(#j)"><g transform="translate(359.79 345.25)"><path d="m0 0-22.32-29.79 25.2-36.091h-11.609l-19.621 27.99-4.589-6.48v-21.51h-9.54v65.881h9.54v-29.881l21.96 29.881z" fill="#231f20"/></g><g transform="translate(424.25 303.94)"><path d="m0 0 16.83 41.4h9.99l-26.82-66.24-13.32 33.12-13.41-33.12-26.82 66.24h9.989l16.831-41.4 13.5 33.03z" fill="#231f20"/></g><g transform="translate(478.62 323.2)"><path d="m0 0-10.53-30.06 23.58 0.18zm-15.57-43.83h-9.81l25.109 65.971 28.71-65.971h-9.809l-1.981 5.67-30.149-0.18z" fill="#231f20"/></g><g transform="translate(560.9 345.16)"><path d="m0 0h0.09l-25.92-56.52h25.83v-9.54l-41.939 0.09 25.649 56.79h-22.05v9.271h38.43z" fill="#231f20"/></g><g transform="translate(598.18 323.2)"><path d="m0 0-10.53-30.06 23.58 0.18zm-15.57-43.83h-9.81l25.109 65.971 28.71-65.971h-9.809l-1.981 5.67-30.149-0.18z" fill="#231f20"/></g><g transform="translate(661.12 307.18)"><path d="m0 0c2.52 0 4.829 0.704 6.93 2.115 2.099 1.408 3.749 3.27 4.95 5.58 1.199 2.309 1.8 4.694 1.8 7.155 0 2.52-0.617 4.919-1.845 7.2-1.231 2.279-2.896 4.109-4.995 5.49-2.101 1.379-4.381 2.069-6.84 2.069h-12.87v-29.609zm12.06-5.131 11.61-22.859h-10.17l-10.17 19.53h-16.29v-19.53h-9.63v66.15h21.42c5.22 0 9.93-1.291 14.13-3.87 3.359-2.102 5.984-4.892 7.875-8.37 1.89-3.481 2.835-7.232 2.835-11.25 0-4.021-0.976-7.756-2.925-11.205-1.951-3.451-4.695-6.226-8.235-8.325z" fill="#231f20"/></g><g transform="translate(320.2 258.15)"><path d="m0 0v-9.076c0.521 0 2.798 0.065 4.457 0.13 2.44 0.13 3.318 1.92 3.318 4.554 0 2.603-1.073 4.23-3.416 4.36-0.748 0.064-3.643 0.032-4.359 0.032m2.311 2.505c5.594 0 8.425-1.626 8.425-6.897 0-5.302-2.831-7.125-8.425-7.125h-2.311v-4.912c0-1.171-0.423-2.114-1.887-2.114h-1.041v18.934c0 1.203 0.325 2.114 1.789 2.114z" fill="#6d6f71"/></g><g transform="translate(336.69 258.15)"><path d="m0 0v-7.515l3.155 0.13c2.473 0.13 3.351 1.757 3.351 3.871 0 2.082-1.106 3.352-3.448 3.482-0.619 0.032-2.115 0.032-3.058 0.032m1.008 2.505c5.628 0 8.459-1.269 8.459-6.019 0-3.155-1.4-4.88-4.1-5.66 1.464-0.846 2.05-2.245 2.407-4.262 0.261-1.366 0.521-2.732 1.27-2.764 0.553 0 1.139 0.26 1.236 0.325 0 0 0.065-0.456 0.13-0.813 0.098-0.716 0.032-1.269-0.813-1.627-0.423-0.163-1.171-0.358-1.855-0.326-2.05 0.066-2.277 2.603-2.862 4.912-0.456 1.725-0.163 3.839-4.88 3.775v-6.475c0-1.171-0.423-2.114-1.887-2.114h-1.009v18.934c0 1.203 0.326 2.114 1.79 2.114z" fill="#6d6f71"/></g><g transform="translate(361.84 250.15)"><path d="m0 0c0 5.823-0.943 8.198-4.978 8.198-4.033 0-4.976-2.375-4.976-8.198 0-5.855 0.943-8.23 4.976-8.23 4.035 0 4.978 2.375 4.978 8.23m2.896 0c0-7.385-2.245-10.638-7.874-10.638-5.627 0-7.872 3.253-7.872 10.638 0 7.353 2.245 10.605 7.872 10.605 5.629 0 7.874-3.252 7.874-10.605" fill="#6d6f71"/></g><g transform="translate(378.66 260.65)"><path d="m0 0v-0.878c0-1.334-0.846-1.627-1.92-1.627l-5.953 0.228v-6.636c2.928 0.032 5.953 0.194 5.953 0.194v-0.878c0-1.366-0.846-1.659-1.919-1.659l-4.034 0.066v-7.744c0-1.203-0.325-2.114-1.789-2.114h-1.107v18.934c0 1.203 0.326 2.114 1.79 2.114z" fill="#6d6f71"/></g><g transform="translate(381.46 239.61)"><path d="m0 0v18.934c0 1.203 0.292 2.114 1.757 2.114h9.011v-0.878c0-1.334-0.846-1.627-1.953-1.627l-5.953 0.228v-6.636c2.928 0.032 5.987 0.194 5.987 0.194v-0.878c0-1.366-0.846-1.659-1.953-1.659l-4.034 0.065v-7.547c3.384 0.065 7.906 0.293 7.906 0.293v-0.976c0-1.334-0.846-1.627-1.953-1.627z" fill="#6d6f71"/></g><g transform="translate(401.57 260.75)"><path d="m0 0c1.822 0 3.514-0.488 4.359-1.041 0.879-0.553 0.782-0.943 0.684-1.496l-0.13-0.716c-1.888 0.585-3.384 0.814-4.62 0.814-3.188 0-4.619-1.205-4.522-2.994 0.098-1.854 2.505-2.472 4.75-3.546 2.895-1.431 5.433-3.123 5.433-6.018 0-3.481-2.375-6.246-7.45-6.246-1.692 0-3.807 0.423-4.912 1.302-0.748 0.617-0.651 1.073-0.325 1.821l0.293 0.683c1.755-0.976 3.448-1.334 4.814-1.334 2.18 0 4.685 1.041 4.685 3.383 0 2.018-2.441 3.123-4.425 4.1-1.757 0.846-5.726 2.18-5.726 5.758 0 2.927 1.464 5.53 7.092 5.53" fill="#6d6f71"/></g><g transform="translate(421.02 246.63)"><path d="m0 0c0-4.749-2.244-7.124-6.799-7.124-1.497 0-2.993 0.228-3.936 0.748-0.878 0.456-0.911 1.139-0.521 1.984 0.195 0.489 0.325 0.684 0.325 0.684 0.977-0.488 2.278-0.943 3.644-0.943 2.18 0 4.391 0.195 4.391 4.066v12.492c0 1.203 0.326 2.114 1.79 2.114h1.106z" fill="#6d6f71"/></g><g transform="translate(436.94 250.15)"><path d="m0 0c0 5.823-0.943 8.198-4.978 8.198-4.033 0-4.976-2.375-4.976-8.198 0-5.855 0.943-8.23 4.976-8.23 4.035 0 4.978 2.375 4.978 8.23m2.896 0c0-7.385-2.245-10.638-7.874-10.638-5.627 0-7.872 3.253-7.872 10.638 0 7.353 2.245 10.605 7.872 10.605 5.629 0 7.874-3.252 7.874-10.605" fill="#6d6f71"/></g><g transform="translate(457.16 258.54)"><path d="m0 0v-18.934h-2.538c-1.009 0-1.855 0.684-2.407 1.855-0.489 0.943-4.88 10.052-6.409 13.24l0.097-13.176c0-1.073-0.292-1.919-1.659-1.919h-1.235v21.048h1.138c1.106 0 1.919-0.682 2.472-1.691 0.651-1.139 6.475-12.785 7.71-15.258l-0.065 16.949h1.237c1.366 0 1.659-1.008 1.659-2.114" fill="#6d6f71"/></g><g transform="translate(463.27 246.73)"><path d="m0 0 7.385 0.131c-0.944 4.587-2.375 9.401-3.611 11.646-1.334-2.277-2.863-7.125-3.774-11.777m-2.374-7.124h-1.399c0.293 7.385 3.058 15.354 5.172 19.779 0.228 0.489 0.748 1.302 2.245 1.302h1.822c2.114-3.774 5.139-11.842 5.725-19.519 0.065-0.521-0.163-1.562-1.463-1.562h-1.334c-0.066 1.366-0.261 3.025-0.553 4.814l-8.231 0.098c-0.195-1.203-0.325-2.342-0.39-3.383-0.032-0.553-0.423-1.529-1.594-1.529" fill="#6d6f71"/></g><g transform="translate(479.69 260.65)"><path d="m0 0v-18.705l7.905 0.26v-0.976c0-1.334-0.845-1.627-1.92-1.627h-8.848v18.934c0 1.203 0.325 2.114 1.789 2.114z" fill="#6d6f71"/></g><g transform="translate(504.54 258.54)"><path d="m0 0v-18.934h-2.538c-1.008 0-1.855 0.684-2.407 1.855-0.489 0.943-4.88 10.052-6.409 13.24l0.097-13.176c0-1.073-0.292-1.919-1.658-1.919h-1.236v21.048h1.138c1.106 0 1.919-0.682 2.472-1.691 0.651-1.139 6.474-12.785 7.71-15.258l-0.065 16.949h1.237c1.366 0 1.659-1.008 1.659-2.114" fill="#6d6f71"/></g><g transform="translate(508.43 239.61)"><path d="m0 0v18.934c0 1.203 0.292 2.114 1.756 2.114h9.012v-0.878c0-1.334-0.846-1.627-1.953-1.627l-5.953 0.228v-6.636c2.928 0.032 5.987 0.194 5.987 0.194v-0.878c0-1.366-0.847-1.659-1.953-1.659l-4.034 0.065v-7.547c3.384 0.065 7.906 0.293 7.906 0.293v-0.976c0-1.334-0.846-1.627-1.953-1.627z" fill="#6d6f71"/></g><g transform="translate(543 243.48)"><path d="m0 0s0.131-0.357 0.325-0.878c0.325-0.943 0.033-1.464-0.78-1.92-0.879-0.487-2.212-1.171-4.425-1.171-5.628 0-7.97 3.253-7.97 10.638 0 7.352 2.342 10.605 7.97 10.605 1.822 0 3.254-0.455 4.132-0.845 0.943-0.391 1.171-0.586 0.813-1.659l-0.325-0.976c-1.92 0.78-3.123 1.073-4.718 1.073-4.293 0-5.009-3.025-5.009-8.198 0-4.944 0.683-8.231 4.945-8.231 1.398 0 3.025 0.457 5.042 1.562" fill="#6d6f71"/></g><g transform="translate(546.11 259.78)"><path d="m0 0v0.878h11.679v-2.212l-8.654-16.591c3.871 0.065 8.849 0.26 8.849 0.26v-0.878c0-1.334-0.846-1.627-1.92-1.627h-10.182v2.212l8.686 16.526-6.507-0.195c-1.105 0-1.951 0.293-1.951 1.627" fill="#6d6f71"/></g><g transform="translate(566.81 248.58)"><path d="m0 0c1.984 2.83 3.872 6.312 4.1 12.103h2.895c-0.293-7.581-3.579-11.387-5.498-13.86v-5.107c0-1.171-0.423-2.115-1.887-2.115h-1.008v7.125c-1.953 2.472-5.303 6.279-5.596 13.957h2.895c0.26-5.759 2.05-9.273 4.099-12.103" fill="#6d6f71"/></g><g transform="translate(582.53 260.75)"><path d="m0 0c1.822 0 3.514-0.488 4.359-1.041 0.879-0.553 0.782-0.943 0.684-1.496l-0.13-0.716c-1.888 0.585-3.384 0.814-4.62 0.814-3.188 0-4.619-1.205-4.522-2.994 0.098-1.854 2.505-2.472 4.75-3.546 2.895-1.431 5.433-3.123 5.433-6.018 0-3.481-2.375-6.246-7.45-6.246-1.692 0-3.807 0.423-4.912 1.302-0.748 0.617-0.651 1.073-0.325 1.821l0.292 0.683c1.756-0.976 3.449-1.334 4.815-1.334 2.18 0 4.685 1.041 4.685 3.383 0 2.018-2.441 3.123-4.425 4.1-1.757 0.846-5.726 2.18-5.726 5.758 0 2.927 1.464 5.53 7.092 5.53" fill="#6d6f71"/></g><g transform="translate(590.69 259.78)"><path d="m0 0v0.878h11.679v-2.212l-8.654-16.591c3.871 0.065 8.849 0.26 8.849 0.26v-0.878c0-1.334-0.846-1.627-1.92-1.627h-10.182v2.212l8.686 16.526-6.507-0.195c-1.105 0-1.951 0.293-1.951 1.627" fill="#6d6f71"/></g><g transform="translate(617.02 243.48)"><path d="m0 0s0.13-0.357 0.325-0.878c0.326-0.943 0.033-1.464-0.78-1.92-0.879-0.487-2.212-1.171-4.425-1.171-5.628 0-7.97 3.253-7.97 10.638 0 7.352 2.342 10.605 7.97 10.605 1.822 0 3.254-0.455 4.132-0.845 0.943-0.391 1.171-0.586 0.813-1.659l-0.325-0.976c-1.92 0.78-3.123 1.073-4.718 1.073-4.293 0-5.009-3.025-5.009-8.198 0-4.944 0.683-8.231 4.945-8.231 1.398 0 3.025 0.457 5.042 1.562" fill="#6d6f71"/></g><g transform="translate(620.13 259.78)"><path d="m0 0v0.878h11.679v-2.212l-8.654-16.591c3.871 0.065 8.849 0.26 8.849 0.26v-0.878c0-1.334-0.846-1.627-1.92-1.627h-10.183v2.212l8.687 16.526-6.507-0.195c-1.105 0-1.951 0.293-1.951 1.627" fill="#6d6f71"/></g><g transform="translate(634.81 239.61)"><path d="m0 0v18.934c0 1.203 0.292 2.114 1.756 2.114h9.012v-0.878c0-1.334-0.846-1.627-1.953-1.627l-5.953 0.228v-6.636c2.928 0.032 5.987 0.194 5.987 0.194v-0.878c0-1.366-0.847-1.659-1.953-1.659l-4.034 0.065v-7.547c3.384 0.065 7.906 0.293 7.906 0.293v-0.976c0-1.334-0.846-1.627-1.953-1.627z" fill="#6d6f71"/></g><g transform="translate(662.51 258.54)"><path d="m0 0v-18.934h-2.538c-1.008 0-1.855 0.684-2.407 1.855-0.489 0.943-4.88 10.052-6.409 13.24l0.097-13.176c0-1.073-0.292-1.919-1.658-1.919h-1.236v21.048h1.138c1.106 0 1.919-0.682 2.472-1.691 0.651-1.139 6.474-12.785 7.71-15.258l-0.065 16.949h1.237c1.366 0 1.659-1.008 1.659-2.114" fill="#6d6f71"/></g><g transform="translate(669.26 260.65)"><path d="m0 0v-18.934c0-1.203-0.325-2.114-1.789-2.114h-1.073v18.934c0 1.203 0.292 2.114 1.756 2.114z" fill="#6d6f71"/></g><g transform="translate(673.13 239.61)"><path d="m0 0v18.934c0 1.203 0.292 2.114 1.757 2.114h9.011v-0.878c0-1.334-0.846-1.627-1.953-1.627l-5.953 0.228v-6.636c2.928 0.032 5.987 0.194 5.987 0.194v-0.878c0-1.366-0.846-1.659-1.953-1.659l-4.034 0.065v-7.547c3.384 0.065 7.906 0.293 7.906 0.293v-0.976c0-1.334-0.846-1.627-1.953-1.627z" fill="#6d6f71"/></g></g></g></svg>
